<mxfile host="Electron" agent="Mozilla/5.0 (Windows NT 10.0; Win64; x64) AppleWebKit/537.36 (KHTML, like Gecko) draw.io/25.0.2 Chrome/128.0.6613.186 Electron/32.2.5 Safari/537.36" version="25.0.2">
  <diagram name="Страница — 1" id="bc0i2tmREZ7SOvjMkWn7">
    <mxGraphModel dx="1727" dy="1025" grid="0" gridSize="10" guides="1" tooltips="1" connect="1" arrows="1" fold="1" page="1" pageScale="1" pageWidth="2339" pageHeight="3300" math="0" shadow="0">
      <root>
        <mxCell id="0" />
        <mxCell id="1" parent="0" />
        <mxCell id="MAyHBlnWu1_Wy2i7nRO9-3" value="" style="edgeStyle=orthogonalEdgeStyle;rounded=0;orthogonalLoop=1;jettySize=auto;html=1;" edge="1" parent="1" source="MAyHBlnWu1_Wy2i7nRO9-1" target="MAyHBlnWu1_Wy2i7nRO9-2">
          <mxGeometry relative="1" as="geometry" />
        </mxCell>
        <mxCell id="MAyHBlnWu1_Wy2i7nRO9-1" value="Начало" style="ellipse;whiteSpace=wrap;html=1;fontSize=17;" vertex="1" parent="1">
          <mxGeometry x="380" y="20" width="120" height="80" as="geometry" />
        </mxCell>
        <mxCell id="MAyHBlnWu1_Wy2i7nRO9-7" value="" style="edgeStyle=orthogonalEdgeStyle;rounded=0;orthogonalLoop=1;jettySize=auto;html=1;" edge="1" parent="1" source="MAyHBlnWu1_Wy2i7nRO9-2" target="MAyHBlnWu1_Wy2i7nRO9-6">
          <mxGeometry relative="1" as="geometry" />
        </mxCell>
        <mxCell id="MAyHBlnWu1_Wy2i7nRO9-2" value="double f(double x)" style="shape=process;whiteSpace=wrap;html=1;backgroundOutline=1;fontSize=17;" vertex="1" parent="1">
          <mxGeometry x="380" y="170" width="120" height="60" as="geometry" />
        </mxCell>
        <mxCell id="MAyHBlnWu1_Wy2i7nRO9-5" style="edgeStyle=orthogonalEdgeStyle;rounded=0;orthogonalLoop=1;jettySize=auto;html=1;exitX=0;exitY=0.5;exitDx=0;exitDy=0;exitPerimeter=0;endArrow=none;endFill=0;dashed=1;strokeWidth=2;" edge="1" parent="1" source="MAyHBlnWu1_Wy2i7nRO9-4">
          <mxGeometry relative="1" as="geometry">
            <mxPoint x="440" y="130" as="targetPoint" />
          </mxGeometry>
        </mxCell>
        <mxCell id="MAyHBlnWu1_Wy2i7nRO9-4" value="&lt;div&gt;#include &amp;lt;iostream&amp;gt;&lt;/div&gt;&lt;div&gt;#include &amp;lt;clocale&amp;gt;&lt;/div&gt;&lt;div&gt;#include &amp;lt;ctime&amp;gt;&lt;/div&gt;&lt;div&gt;#include &amp;lt;cmath&amp;gt;&lt;/div&gt;&lt;div&gt;using namespace std;&lt;/div&gt;" style="strokeWidth=2;html=1;shape=mxgraph.flowchart.annotation_2;align=left;labelPosition=right;pointerEvents=1;fontSize=14;" vertex="1" parent="1">
          <mxGeometry x="600" y="80" width="50" height="100" as="geometry" />
        </mxCell>
        <mxCell id="MAyHBlnWu1_Wy2i7nRO9-6" value="return x - 2 + sin(1 / x);" style="ellipse;whiteSpace=wrap;html=1;fontSize=17;" vertex="1" parent="1">
          <mxGeometry x="380" y="270" width="120" height="80" as="geometry" />
        </mxCell>
        <mxCell id="MAyHBlnWu1_Wy2i7nRO9-8" value="{" style="text;html=1;align=center;verticalAlign=middle;whiteSpace=wrap;rounded=0;fontSize=17;" vertex="1" parent="1">
          <mxGeometry x="370" y="240" width="60" height="30" as="geometry" />
        </mxCell>
        <mxCell id="MAyHBlnWu1_Wy2i7nRO9-9" value="}" style="text;html=1;align=center;verticalAlign=middle;whiteSpace=wrap;rounded=0;fontSize=17;" vertex="1" parent="1">
          <mxGeometry x="490" y="340" width="60" height="30" as="geometry" />
        </mxCell>
        <mxCell id="MAyHBlnWu1_Wy2i7nRO9-12" value="" style="edgeStyle=orthogonalEdgeStyle;rounded=0;orthogonalLoop=1;jettySize=auto;html=1;" edge="1" parent="1" source="MAyHBlnWu1_Wy2i7nRO9-10" target="MAyHBlnWu1_Wy2i7nRO9-11">
          <mxGeometry relative="1" as="geometry" />
        </mxCell>
        <mxCell id="MAyHBlnWu1_Wy2i7nRO9-10" value="double n(double a, double b, int k, float e)" style="shape=process;whiteSpace=wrap;html=1;backgroundOutline=1;fontSize=16;" vertex="1" parent="1">
          <mxGeometry x="640" y="190" width="170" height="60" as="geometry" />
        </mxCell>
        <mxCell id="MAyHBlnWu1_Wy2i7nRO9-16" value="" style="edgeStyle=orthogonalEdgeStyle;rounded=0;orthogonalLoop=1;jettySize=auto;html=1;" edge="1" parent="1" source="MAyHBlnWu1_Wy2i7nRO9-11" target="MAyHBlnWu1_Wy2i7nRO9-15">
          <mxGeometry relative="1" as="geometry" />
        </mxCell>
        <mxCell id="MAyHBlnWu1_Wy2i7nRO9-11" value="double c = (a + b) / 2;" style="whiteSpace=wrap;html=1;fontSize=16;" vertex="1" parent="1">
          <mxGeometry x="665" y="290" width="120" height="60" as="geometry" />
        </mxCell>
        <mxCell id="MAyHBlnWu1_Wy2i7nRO9-18" value="1" style="edgeStyle=orthogonalEdgeStyle;rounded=0;orthogonalLoop=1;jettySize=auto;html=1;entryX=0.5;entryY=0;entryDx=0;entryDy=0;fontSize=16;" edge="1" parent="1" source="MAyHBlnWu1_Wy2i7nRO9-15" target="MAyHBlnWu1_Wy2i7nRO9-17">
          <mxGeometry x="-0.3416" y="-15" relative="1" as="geometry">
            <Array as="points">
              <mxPoint x="520" y="445" />
            </Array>
            <mxPoint as="offset" />
          </mxGeometry>
        </mxCell>
        <mxCell id="MAyHBlnWu1_Wy2i7nRO9-24" value="" style="edgeStyle=orthogonalEdgeStyle;rounded=0;orthogonalLoop=1;jettySize=auto;html=1;entryX=0.5;entryY=0;entryDx=0;entryDy=0;" edge="1" parent="1" source="MAyHBlnWu1_Wy2i7nRO9-15" target="MAyHBlnWu1_Wy2i7nRO9-23">
          <mxGeometry relative="1" as="geometry">
            <Array as="points">
              <mxPoint x="970" y="445" />
            </Array>
          </mxGeometry>
        </mxCell>
        <mxCell id="MAyHBlnWu1_Wy2i7nRO9-15" value="if (abs(a - b) &amp;lt;= e)" style="rhombus;whiteSpace=wrap;html=1;fontSize=16;" vertex="1" parent="1">
          <mxGeometry x="656.25" y="380" width="137.5" height="130" as="geometry" />
        </mxCell>
        <mxCell id="MAyHBlnWu1_Wy2i7nRO9-20" value="" style="edgeStyle=orthogonalEdgeStyle;rounded=0;orthogonalLoop=1;jettySize=auto;html=1;" edge="1" parent="1" source="MAyHBlnWu1_Wy2i7nRO9-17" target="MAyHBlnWu1_Wy2i7nRO9-19">
          <mxGeometry relative="1" as="geometry" />
        </mxCell>
        <mxCell id="MAyHBlnWu1_Wy2i7nRO9-17" value="cout &amp;lt;&amp;lt; &quot;Количество итераций: &quot; &amp;lt;&amp;lt; k &amp;lt;&amp;lt;&#39;\n&#39;;" style="shape=parallelogram;perimeter=parallelogramPerimeter;whiteSpace=wrap;html=1;fixedSize=1;fontSize=16;" vertex="1" parent="1">
          <mxGeometry x="420" y="510" width="200" height="60" as="geometry" />
        </mxCell>
        <mxCell id="MAyHBlnWu1_Wy2i7nRO9-22" value="" style="edgeStyle=orthogonalEdgeStyle;rounded=0;orthogonalLoop=1;jettySize=auto;html=1;" edge="1" parent="1" source="MAyHBlnWu1_Wy2i7nRO9-19" target="MAyHBlnWu1_Wy2i7nRO9-21">
          <mxGeometry relative="1" as="geometry" />
        </mxCell>
        <mxCell id="MAyHBlnWu1_Wy2i7nRO9-19" value="cout &amp;lt;&amp;lt; &quot;Приближенный корень: &quot; &amp;lt;&amp;lt; c &amp;lt;&amp;lt; &#39;\n&#39;;" style="shape=parallelogram;perimeter=parallelogramPerimeter;whiteSpace=wrap;html=1;fixedSize=1;fontSize=16;" vertex="1" parent="1">
          <mxGeometry x="415" y="600" width="210" height="60" as="geometry" />
        </mxCell>
        <mxCell id="MAyHBlnWu1_Wy2i7nRO9-21" value="return (a + b) / 2;" style="ellipse;whiteSpace=wrap;html=1;fontSize=16;" vertex="1" parent="1">
          <mxGeometry x="450" y="690" width="140" height="80" as="geometry" />
        </mxCell>
        <mxCell id="MAyHBlnWu1_Wy2i7nRO9-26" value="" style="edgeStyle=orthogonalEdgeStyle;rounded=0;orthogonalLoop=1;jettySize=auto;html=1;" edge="1" parent="1" source="MAyHBlnWu1_Wy2i7nRO9-23" target="MAyHBlnWu1_Wy2i7nRO9-25">
          <mxGeometry relative="1" as="geometry" />
        </mxCell>
        <mxCell id="MAyHBlnWu1_Wy2i7nRO9-23" value="cout &amp;lt;&amp;lt; &quot;Корень при &quot; &amp;lt;&amp;lt; k + 1 &amp;lt;&amp;lt; &quot; итерации x0 = &quot; &amp;lt;&amp;lt; c &amp;lt;&amp;lt; &#39;\n&#39;;" style="shape=parallelogram;perimeter=parallelogramPerimeter;whiteSpace=wrap;html=1;fixedSize=1;fontSize=16;" vertex="1" parent="1">
          <mxGeometry x="820" y="510" width="300" height="60" as="geometry" />
        </mxCell>
        <mxCell id="MAyHBlnWu1_Wy2i7nRO9-28" value="1" style="edgeStyle=orthogonalEdgeStyle;rounded=0;orthogonalLoop=1;jettySize=auto;html=1;entryX=0.5;entryY=0;entryDx=0;entryDy=0;fontSize=17;" edge="1" parent="1" source="MAyHBlnWu1_Wy2i7nRO9-25" target="MAyHBlnWu1_Wy2i7nRO9-27">
          <mxGeometry x="-0.3527" y="-15" relative="1" as="geometry">
            <Array as="points">
              <mxPoint x="829" y="665" />
            </Array>
            <mxPoint as="offset" />
          </mxGeometry>
        </mxCell>
        <mxCell id="MAyHBlnWu1_Wy2i7nRO9-30" value="0" style="edgeStyle=orthogonalEdgeStyle;rounded=0;orthogonalLoop=1;jettySize=auto;html=1;fontSize=17;" edge="1" parent="1" source="MAyHBlnWu1_Wy2i7nRO9-25" target="MAyHBlnWu1_Wy2i7nRO9-29">
          <mxGeometry x="-0.1152" y="15" relative="1" as="geometry">
            <mxPoint as="offset" />
          </mxGeometry>
        </mxCell>
        <mxCell id="MAyHBlnWu1_Wy2i7nRO9-25" value="if (f(c) * f(a) &amp;gt; 0)" style="rhombus;whiteSpace=wrap;html=1;fontSize=16;" vertex="1" parent="1">
          <mxGeometry x="901.25" y="600" width="137.5" height="130" as="geometry" />
        </mxCell>
        <mxCell id="MAyHBlnWu1_Wy2i7nRO9-27" value="return n(c, b, k + 1, e);" style="ellipse;whiteSpace=wrap;html=1;fontSize=16;" vertex="1" parent="1">
          <mxGeometry x="770" y="720" width="117.5" height="95" as="geometry" />
        </mxCell>
        <mxCell id="MAyHBlnWu1_Wy2i7nRO9-29" value="return n(a, c, k + 1, e);" style="ellipse;whiteSpace=wrap;html=1;fontSize=16;" vertex="1" parent="1">
          <mxGeometry x="1120" y="735" width="110" height="80" as="geometry" />
        </mxCell>
        <mxCell id="MAyHBlnWu1_Wy2i7nRO9-33" value="" style="edgeStyle=orthogonalEdgeStyle;rounded=0;orthogonalLoop=1;jettySize=auto;html=1;" edge="1" parent="1" source="MAyHBlnWu1_Wy2i7nRO9-31" target="MAyHBlnWu1_Wy2i7nRO9-32">
          <mxGeometry relative="1" as="geometry" />
        </mxCell>
        <mxCell id="MAyHBlnWu1_Wy2i7nRO9-31" value="int main()" style="shape=process;whiteSpace=wrap;html=1;backgroundOutline=1;fontSize=16;" vertex="1" parent="1">
          <mxGeometry x="112.5" y="170" width="120" height="60" as="geometry" />
        </mxCell>
        <mxCell id="MAyHBlnWu1_Wy2i7nRO9-35" value="" style="edgeStyle=orthogonalEdgeStyle;rounded=0;orthogonalLoop=1;jettySize=auto;html=1;" edge="1" parent="1" source="MAyHBlnWu1_Wy2i7nRO9-32" target="MAyHBlnWu1_Wy2i7nRO9-34">
          <mxGeometry relative="1" as="geometry" />
        </mxCell>
        <mxCell id="MAyHBlnWu1_Wy2i7nRO9-32" value="setlocale(LC_ALL, &quot;Russian&quot;);" style="whiteSpace=wrap;html=1;fontSize=16;" vertex="1" parent="1">
          <mxGeometry x="102.5" y="260" width="140" height="60" as="geometry" />
        </mxCell>
        <mxCell id="MAyHBlnWu1_Wy2i7nRO9-37" value="" style="edgeStyle=orthogonalEdgeStyle;rounded=0;orthogonalLoop=1;jettySize=auto;html=1;" edge="1" parent="1" source="MAyHBlnWu1_Wy2i7nRO9-34" target="MAyHBlnWu1_Wy2i7nRO9-36">
          <mxGeometry relative="1" as="geometry" />
        </mxCell>
        <mxCell id="MAyHBlnWu1_Wy2i7nRO9-34" value="cout &amp;lt;&amp;lt; &quot;Введите точность: &quot;;" style="shape=parallelogram;perimeter=parallelogramPerimeter;whiteSpace=wrap;html=1;fixedSize=1;fontSize=16;" vertex="1" parent="1">
          <mxGeometry x="60" y="350" width="225" height="60" as="geometry" />
        </mxCell>
        <mxCell id="MAyHBlnWu1_Wy2i7nRO9-39" value="" style="edgeStyle=orthogonalEdgeStyle;rounded=0;orthogonalLoop=1;jettySize=auto;html=1;" edge="1" parent="1" source="MAyHBlnWu1_Wy2i7nRO9-36" target="MAyHBlnWu1_Wy2i7nRO9-38">
          <mxGeometry relative="1" as="geometry" />
        </mxCell>
        <mxCell id="MAyHBlnWu1_Wy2i7nRO9-36" value="double e;" style="whiteSpace=wrap;html=1;fontSize=16;" vertex="1" parent="1">
          <mxGeometry x="112.5" y="430" width="120" height="60" as="geometry" />
        </mxCell>
        <mxCell id="MAyHBlnWu1_Wy2i7nRO9-41" value="" style="edgeStyle=orthogonalEdgeStyle;rounded=0;orthogonalLoop=1;jettySize=auto;html=1;" edge="1" parent="1" source="MAyHBlnWu1_Wy2i7nRO9-38" target="MAyHBlnWu1_Wy2i7nRO9-40">
          <mxGeometry relative="1" as="geometry" />
        </mxCell>
        <mxCell id="MAyHBlnWu1_Wy2i7nRO9-38" value="cin &amp;gt;&amp;gt; e;" style="shape=parallelogram;perimeter=parallelogramPerimeter;whiteSpace=wrap;html=1;fixedSize=1;fontSize=16;" vertex="1" parent="1">
          <mxGeometry x="63.75" y="520" width="217.5" height="60" as="geometry" />
        </mxCell>
        <mxCell id="MAyHBlnWu1_Wy2i7nRO9-43" value="" style="edgeStyle=orthogonalEdgeStyle;rounded=0;orthogonalLoop=1;jettySize=auto;html=1;" edge="1" parent="1" source="MAyHBlnWu1_Wy2i7nRO9-40" target="MAyHBlnWu1_Wy2i7nRO9-42">
          <mxGeometry relative="1" as="geometry" />
        </mxCell>
        <mxCell id="MAyHBlnWu1_Wy2i7nRO9-40" value="int start = clock();" style="whiteSpace=wrap;html=1;fontSize=16;" vertex="1" parent="1">
          <mxGeometry x="93.75" y="600" width="157.5" height="60" as="geometry" />
        </mxCell>
        <mxCell id="MAyHBlnWu1_Wy2i7nRO9-45" value="" style="edgeStyle=orthogonalEdgeStyle;rounded=0;orthogonalLoop=1;jettySize=auto;html=1;" edge="1" parent="1" source="MAyHBlnWu1_Wy2i7nRO9-42" target="MAyHBlnWu1_Wy2i7nRO9-44">
          <mxGeometry relative="1" as="geometry" />
        </mxCell>
        <mxCell id="MAyHBlnWu1_Wy2i7nRO9-42" value="n(1, 2, 0, e);" style="whiteSpace=wrap;html=1;fontSize=16;" vertex="1" parent="1">
          <mxGeometry x="93.75" y="675" width="157.5" height="60" as="geometry" />
        </mxCell>
        <mxCell id="MAyHBlnWu1_Wy2i7nRO9-47" value="" style="edgeStyle=orthogonalEdgeStyle;rounded=0;orthogonalLoop=1;jettySize=auto;html=1;" edge="1" parent="1" source="MAyHBlnWu1_Wy2i7nRO9-44" target="MAyHBlnWu1_Wy2i7nRO9-46">
          <mxGeometry relative="1" as="geometry" />
        </mxCell>
        <mxCell id="MAyHBlnWu1_Wy2i7nRO9-44" value="cout &amp;lt;&amp;lt; &quot;Время выполнения программы (в миллисекундах): &quot; &amp;lt;&amp;lt; clock() - start &amp;lt;&amp;lt; &#39;\n&#39;;" style="shape=parallelogram;perimeter=parallelogramPerimeter;whiteSpace=wrap;html=1;fixedSize=1;fontSize=16;" vertex="1" parent="1">
          <mxGeometry x="43.75" y="755" width="257.5" height="60" as="geometry" />
        </mxCell>
        <mxCell id="MAyHBlnWu1_Wy2i7nRO9-46" value="return 0;" style="ellipse;whiteSpace=wrap;html=1;fontSize=16;" vertex="1" parent="1">
          <mxGeometry x="113.75" y="840" width="117.5" height="80" as="geometry" />
        </mxCell>
        <mxCell id="MAyHBlnWu1_Wy2i7nRO9-49" value="{" style="text;html=1;align=center;verticalAlign=middle;whiteSpace=wrap;rounded=0;fontSize=17;" vertex="1" parent="1">
          <mxGeometry x="656.25" y="260" width="60" height="30" as="geometry" />
        </mxCell>
        <mxCell id="MAyHBlnWu1_Wy2i7nRO9-50" value="{" style="text;html=1;align=center;verticalAlign=middle;whiteSpace=wrap;rounded=0;fontSize=17;" vertex="1" parent="1">
          <mxGeometry x="113.75" y="230" width="60" height="30" as="geometry" />
        </mxCell>
        <mxCell id="MAyHBlnWu1_Wy2i7nRO9-51" value="{" style="text;html=1;align=center;verticalAlign=middle;whiteSpace=wrap;rounded=0;fontSize=17;" vertex="1" parent="1">
          <mxGeometry x="460" y="470" width="60" height="30" as="geometry" />
        </mxCell>
        <mxCell id="MAyHBlnWu1_Wy2i7nRO9-52" value="{" style="text;html=1;align=center;verticalAlign=middle;whiteSpace=wrap;rounded=0;fontSize=17;" vertex="1" parent="1">
          <mxGeometry x="901.25" y="460" width="60" height="30" as="geometry" />
        </mxCell>
        <mxCell id="MAyHBlnWu1_Wy2i7nRO9-53" value="}" style="text;html=1;align=center;verticalAlign=middle;whiteSpace=wrap;rounded=0;fontSize=17;" vertex="1" parent="1">
          <mxGeometry x="880" y="800" width="60" height="30" as="geometry" />
        </mxCell>
        <mxCell id="MAyHBlnWu1_Wy2i7nRO9-54" value="}" style="text;html=1;align=center;verticalAlign=middle;whiteSpace=wrap;rounded=0;fontSize=17;" vertex="1" parent="1">
          <mxGeometry x="570" y="760" width="60" height="30" as="geometry" />
        </mxCell>
        <mxCell id="MAyHBlnWu1_Wy2i7nRO9-55" value="}" style="text;html=1;align=center;verticalAlign=middle;whiteSpace=wrap;rounded=0;fontSize=17;" vertex="1" parent="1">
          <mxGeometry x="225" y="910" width="60" height="30" as="geometry" />
        </mxCell>
        <mxCell id="MAyHBlnWu1_Wy2i7nRO9-56" value="}" style="text;html=1;align=center;verticalAlign=middle;whiteSpace=wrap;rounded=0;fontSize=17;" vertex="1" parent="1">
          <mxGeometry x="1220" y="800" width="60" height="30" as="geometry" />
        </mxCell>
      </root>
    </mxGraphModel>
  </diagram>
</mxfile>
